<svg version="1.1" xmlns="http://www.w3.org/2000/svg" xmlns:xlink="http://www.w3.org/1999/xlink">

    <!-- delete arrow -->
    <svg id="delete_arrow" width="11" height="20" viewBox="0 0 11 20" >
        <path d="M0.0908666 10C0.0907426 9.88065 0.114212 9.7624 0.159922 9.6521C0.205634 9.5418 0.272686 9.44162 0.357229 9.35731L9.44813 0.26642C9.80335 -0.0888067 10.3786 -0.0888067 10.7336 0.26642C11.0886 0.621647 11.0888 1.19687 10.7336 1.55187L2.28541 10L10.7336 18.4482C11.0888 18.8034 11.0888 19.3787 10.7336 19.7337C10.3784 20.0887 9.80313 20.0889 9.44813 19.7337L0.357229 10.6428C0.272686 10.5585 0.205634 10.4583 0.159922 10.348C0.114212 10.2377 0.0907426 10.1194 0.0908666 10Z" fill="#FB1845"/>
    </svg>

    <!-- multiplication -->
    <svg id="multiplication" width="13" height="13" viewBox="0 0 13 13" >
        <path d="M1.23234 12.8438C0.91363 12.8623 0.600177 12.7564 0.358078 12.5483C-0.119359 12.068 -0.119359 11.2923 0.358078 10.812L10.8124 0.357666C11.309 -0.106999 12.0882 -0.0811684 12.5529 0.415409C12.973 0.864462 12.9975 1.55467 12.6102 2.03235L2.09427 12.5483C1.85532 12.7534 1.54687 12.8591 1.23234 12.8438Z" fill="#FB1845"/>
        <path d="M11.6743 12.8438C11.3513 12.8425 11.0417 12.7142 10.8123 12.4867L0.357979 2.03233C-0.0843425 1.51581 -0.0242066 0.738459 0.492322 0.296097C0.953337 -0.0986991 1.63324 -0.0986991 2.09422 0.296097L12.6101 10.7505C13.1066 11.2152 13.1323 11.9945 12.6675 12.491C12.649 12.5107 12.6299 12.5298 12.6101 12.5483C12.4827 12.6591 12.3339 12.7425 12.1729 12.7933C12.012 12.8441 11.8422 12.8613 11.6743 12.8438Z" fill="#FB1845"/>
    </svg>

    <!-- sqrt -->
    <svg id="sqrt" width="22" height="19" viewBox="0 0 22 19" >
        <path fill-rule="evenodd" clip-rule="evenodd" d="M5.65802 0.654582C5.70132 0.46851 5.8063 0.302558 5.95588 0.183714C6.10546 0.0648694 6.29084 0.000122098 6.48189 0H21.1536C21.378 0 21.5933 0.0891784 21.7521 0.247917C21.9108 0.406656 22 0.621952 22 0.846442C22 1.07093 21.9108 1.28623 21.7521 1.44497C21.5933 1.60371 21.378 1.69288 21.1536 1.69288H7.60145C7.47412 1.69284 7.35052 1.73586 7.25074 1.81495C7.15096 1.89404 7.08085 2.00455 7.05182 2.12852L3.35569 17.9672C3.31314 18.1485 3.21196 18.3107 3.06784 18.4288C2.92371 18.5468 2.74468 18.6139 2.5585 18.6198C2.37232 18.6257 2.18939 18.5701 2.03807 18.4615C1.88674 18.3528 1.77546 18.1973 1.72149 18.0191L0.0286072 12.3761C-0.0280947 12.1636 0.000166912 11.9373 0.107405 11.7453C0.214644 11.5532 0.392435 11.4104 0.603117 11.3472C0.8138 11.284 1.04082 11.3052 1.2361 11.4065C1.43137 11.5078 1.57956 11.6811 1.64926 11.8897L1.82081 12.4596C1.98671 13.0126 2.78011 12.9889 2.91103 12.4258L5.65802 0.654582Z" />
    </svg>

</svg>